<mxfile host="app.diagrams.net" modified="2023-11-01T17:33:06.982Z" agent="Mozilla/5.0 (Windows NT 10.0; Win64; x64) AppleWebKit/537.36 (KHTML, like Gecko) Chrome/118.0.0.0 Safari/537.36" etag="-IHsJaWHn5JB3uep5LYB" version="22.0.8" type="device">
  <diagram name="Страница — 1" id="ehWhyslL2hm9MVyXD8iT">
    <mxGraphModel dx="1877" dy="665" grid="1" gridSize="10" guides="1" tooltips="1" connect="1" arrows="1" fold="1" page="1" pageScale="1" pageWidth="827" pageHeight="1169" math="0" shadow="0">
      <root>
        <mxCell id="0" />
        <mxCell id="1" parent="0" />
        <mxCell id="_Xsb24-6hAEMeWFNvqG2-2" style="edgeStyle=orthogonalEdgeStyle;rounded=0;orthogonalLoop=1;jettySize=auto;html=1;entryX=0.5;entryY=0;entryDx=0;entryDy=0;" edge="1" parent="1" source="6af3JaJ53o1YL7LGkzsN-1" target="_Xsb24-6hAEMeWFNvqG2-1">
          <mxGeometry relative="1" as="geometry" />
        </mxCell>
        <mxCell id="6af3JaJ53o1YL7LGkzsN-1" value="DecisionMakingStarter" style="rounded=0;whiteSpace=wrap;html=1;" parent="1" vertex="1">
          <mxGeometry x="320" y="40" width="160" height="40" as="geometry" />
        </mxCell>
        <mxCell id="_Xsb24-6hAEMeWFNvqG2-21" style="edgeStyle=orthogonalEdgeStyle;rounded=0;orthogonalLoop=1;jettySize=auto;html=1;entryX=0;entryY=0.5;entryDx=0;entryDy=0;" edge="1" parent="1" source="_Xsb24-6hAEMeWFNvqG2-1" target="_Xsb24-6hAEMeWFNvqG2-3">
          <mxGeometry relative="1" as="geometry">
            <Array as="points">
              <mxPoint x="400" y="200" />
              <mxPoint y="200" />
              <mxPoint y="260" />
            </Array>
          </mxGeometry>
        </mxCell>
        <mxCell id="_Xsb24-6hAEMeWFNvqG2-1" value="Collect analitical data" style="rounded=0;whiteSpace=wrap;html=1;" vertex="1" parent="1">
          <mxGeometry x="340" y="120" width="120" height="60" as="geometry" />
        </mxCell>
        <mxCell id="_Xsb24-6hAEMeWFNvqG2-6" style="edgeStyle=orthogonalEdgeStyle;rounded=0;orthogonalLoop=1;jettySize=auto;html=1;exitX=0.25;exitY=1;exitDx=0;exitDy=0;entryX=0.5;entryY=0;entryDx=0;entryDy=0;" edge="1" parent="1" source="_Xsb24-6hAEMeWFNvqG2-3" target="_Xsb24-6hAEMeWFNvqG2-5">
          <mxGeometry relative="1" as="geometry" />
        </mxCell>
        <mxCell id="_Xsb24-6hAEMeWFNvqG2-23" style="edgeStyle=orthogonalEdgeStyle;rounded=0;orthogonalLoop=1;jettySize=auto;html=1;entryX=0;entryY=0.5;entryDx=0;entryDy=0;" edge="1" parent="1" source="_Xsb24-6hAEMeWFNvqG2-3" target="_Xsb24-6hAEMeWFNvqG2-22">
          <mxGeometry relative="1" as="geometry" />
        </mxCell>
        <mxCell id="_Xsb24-6hAEMeWFNvqG2-3" value="Collect indicator values" style="rounded=0;whiteSpace=wrap;html=1;" vertex="1" parent="1">
          <mxGeometry x="40" y="240" width="120" height="40" as="geometry" />
        </mxCell>
        <mxCell id="_Xsb24-6hAEMeWFNvqG2-8" value="" style="edgeStyle=orthogonalEdgeStyle;rounded=0;orthogonalLoop=1;jettySize=auto;html=1;" edge="1" parent="1" source="_Xsb24-6hAEMeWFNvqG2-5" target="_Xsb24-6hAEMeWFNvqG2-7">
          <mxGeometry relative="1" as="geometry" />
        </mxCell>
        <mxCell id="_Xsb24-6hAEMeWFNvqG2-5" value="Calculate APO" style="rounded=0;whiteSpace=wrap;html=1;" vertex="1" parent="1">
          <mxGeometry x="-40" y="320" width="120" height="40" as="geometry" />
        </mxCell>
        <mxCell id="_Xsb24-6hAEMeWFNvqG2-10" value="" style="edgeStyle=orthogonalEdgeStyle;rounded=0;orthogonalLoop=1;jettySize=auto;html=1;" edge="1" parent="1" source="_Xsb24-6hAEMeWFNvqG2-7" target="_Xsb24-6hAEMeWFNvqG2-9">
          <mxGeometry relative="1" as="geometry" />
        </mxCell>
        <mxCell id="_Xsb24-6hAEMeWFNvqG2-7" value="Calculate BBAND" style="whiteSpace=wrap;html=1;rounded=0;" vertex="1" parent="1">
          <mxGeometry x="-40" y="400" width="120" height="40" as="geometry" />
        </mxCell>
        <mxCell id="_Xsb24-6hAEMeWFNvqG2-12" value="" style="edgeStyle=orthogonalEdgeStyle;rounded=0;orthogonalLoop=1;jettySize=auto;html=1;" edge="1" parent="1" source="_Xsb24-6hAEMeWFNvqG2-9" target="_Xsb24-6hAEMeWFNvqG2-11">
          <mxGeometry relative="1" as="geometry" />
        </mxCell>
        <mxCell id="_Xsb24-6hAEMeWFNvqG2-9" value="Calculate EMA" style="whiteSpace=wrap;html=1;rounded=0;" vertex="1" parent="1">
          <mxGeometry x="-40" y="480" width="120" height="40" as="geometry" />
        </mxCell>
        <mxCell id="_Xsb24-6hAEMeWFNvqG2-14" style="edgeStyle=orthogonalEdgeStyle;rounded=0;orthogonalLoop=1;jettySize=auto;html=1;entryX=0.5;entryY=0;entryDx=0;entryDy=0;" edge="1" parent="1" source="_Xsb24-6hAEMeWFNvqG2-11" target="_Xsb24-6hAEMeWFNvqG2-13">
          <mxGeometry relative="1" as="geometry" />
        </mxCell>
        <mxCell id="_Xsb24-6hAEMeWFNvqG2-11" value="Calculate RSI" style="whiteSpace=wrap;html=1;rounded=0;" vertex="1" parent="1">
          <mxGeometry x="-40" y="560" width="120" height="40" as="geometry" />
        </mxCell>
        <mxCell id="_Xsb24-6hAEMeWFNvqG2-16" style="edgeStyle=orthogonalEdgeStyle;rounded=0;orthogonalLoop=1;jettySize=auto;html=1;entryX=0.5;entryY=0;entryDx=0;entryDy=0;" edge="1" parent="1" source="_Xsb24-6hAEMeWFNvqG2-13" target="_Xsb24-6hAEMeWFNvqG2-15">
          <mxGeometry relative="1" as="geometry" />
        </mxCell>
        <mxCell id="_Xsb24-6hAEMeWFNvqG2-13" value="Calculate SMA" style="rounded=0;whiteSpace=wrap;html=1;" vertex="1" parent="1">
          <mxGeometry x="-40" y="640" width="120" height="40" as="geometry" />
        </mxCell>
        <mxCell id="_Xsb24-6hAEMeWFNvqG2-18" style="edgeStyle=orthogonalEdgeStyle;rounded=0;orthogonalLoop=1;jettySize=auto;html=1;entryX=0.5;entryY=1;entryDx=0;entryDy=0;" edge="1" parent="1" source="_Xsb24-6hAEMeWFNvqG2-15" target="_Xsb24-6hAEMeWFNvqG2-17">
          <mxGeometry relative="1" as="geometry">
            <Array as="points">
              <mxPoint x="20" y="780" />
              <mxPoint x="180" y="780" />
            </Array>
          </mxGeometry>
        </mxCell>
        <mxCell id="_Xsb24-6hAEMeWFNvqG2-15" value="Calculate STD" style="rounded=0;whiteSpace=wrap;html=1;" vertex="1" parent="1">
          <mxGeometry x="-40" y="720" width="120" height="40" as="geometry" />
        </mxCell>
        <mxCell id="_Xsb24-6hAEMeWFNvqG2-19" style="edgeStyle=orthogonalEdgeStyle;rounded=0;orthogonalLoop=1;jettySize=auto;html=1;entryX=0.75;entryY=1;entryDx=0;entryDy=0;" edge="1" parent="1" source="_Xsb24-6hAEMeWFNvqG2-17" target="_Xsb24-6hAEMeWFNvqG2-3">
          <mxGeometry relative="1" as="geometry" />
        </mxCell>
        <mxCell id="_Xsb24-6hAEMeWFNvqG2-17" value="Save all collected indicators in DB" style="rounded=0;whiteSpace=wrap;html=1;" vertex="1" parent="1">
          <mxGeometry x="120" y="320" width="120" height="40" as="geometry" />
        </mxCell>
        <mxCell id="_Xsb24-6hAEMeWFNvqG2-25" style="edgeStyle=orthogonalEdgeStyle;rounded=0;orthogonalLoop=1;jettySize=auto;html=1;exitX=0.25;exitY=1;exitDx=0;exitDy=0;entryX=0.5;entryY=0;entryDx=0;entryDy=0;" edge="1" parent="1" source="_Xsb24-6hAEMeWFNvqG2-22" target="_Xsb24-6hAEMeWFNvqG2-24">
          <mxGeometry relative="1" as="geometry" />
        </mxCell>
        <mxCell id="_Xsb24-6hAEMeWFNvqG2-31" value="" style="edgeStyle=orthogonalEdgeStyle;rounded=0;orthogonalLoop=1;jettySize=auto;html=1;" edge="1" parent="1" source="_Xsb24-6hAEMeWFNvqG2-22" target="_Xsb24-6hAEMeWFNvqG2-30">
          <mxGeometry relative="1" as="geometry" />
        </mxCell>
        <mxCell id="_Xsb24-6hAEMeWFNvqG2-22" value="Collect technical analyze data" style="rounded=0;whiteSpace=wrap;html=1;" vertex="1" parent="1">
          <mxGeometry x="360" y="240" width="120" height="40" as="geometry" />
        </mxCell>
        <mxCell id="_Xsb24-6hAEMeWFNvqG2-27" value="" style="edgeStyle=orthogonalEdgeStyle;rounded=0;orthogonalLoop=1;jettySize=auto;html=1;" edge="1" parent="1" source="_Xsb24-6hAEMeWFNvqG2-24" target="_Xsb24-6hAEMeWFNvqG2-26">
          <mxGeometry relative="1" as="geometry" />
        </mxCell>
        <mxCell id="_Xsb24-6hAEMeWFNvqG2-24" value="Calculate Support and Resistance lines" style="rounded=0;whiteSpace=wrap;html=1;" vertex="1" parent="1">
          <mxGeometry x="280" y="320" width="120" height="40" as="geometry" />
        </mxCell>
        <mxCell id="_Xsb24-6hAEMeWFNvqG2-28" style="edgeStyle=orthogonalEdgeStyle;rounded=0;orthogonalLoop=1;jettySize=auto;html=1;entryX=0.75;entryY=1;entryDx=0;entryDy=0;" edge="1" parent="1" source="_Xsb24-6hAEMeWFNvqG2-26" target="_Xsb24-6hAEMeWFNvqG2-22">
          <mxGeometry relative="1" as="geometry">
            <mxPoint x="440" y="300" as="targetPoint" />
            <Array as="points">
              <mxPoint x="340" y="460" />
              <mxPoint x="450" y="460" />
            </Array>
          </mxGeometry>
        </mxCell>
        <mxCell id="_Xsb24-6hAEMeWFNvqG2-26" value="Find out current trend" style="whiteSpace=wrap;html=1;rounded=0;" vertex="1" parent="1">
          <mxGeometry x="280" y="400" width="120" height="40" as="geometry" />
        </mxCell>
        <mxCell id="_Xsb24-6hAEMeWFNvqG2-34" style="edgeStyle=orthogonalEdgeStyle;rounded=0;orthogonalLoop=1;jettySize=auto;html=1;exitX=0.25;exitY=1;exitDx=0;exitDy=0;entryX=0.5;entryY=0;entryDx=0;entryDy=0;" edge="1" parent="1" source="_Xsb24-6hAEMeWFNvqG2-30" target="_Xsb24-6hAEMeWFNvqG2-33">
          <mxGeometry relative="1" as="geometry" />
        </mxCell>
        <mxCell id="_Xsb24-6hAEMeWFNvqG2-30" value="Collect all indicator neural networks predictions" style="whiteSpace=wrap;html=1;rounded=0;" vertex="1" parent="1">
          <mxGeometry x="640" y="240" width="120" height="40" as="geometry" />
        </mxCell>
        <mxCell id="_Xsb24-6hAEMeWFNvqG2-40" style="edgeStyle=orthogonalEdgeStyle;rounded=0;orthogonalLoop=1;jettySize=auto;html=1;exitX=0.5;exitY=1;exitDx=0;exitDy=0;entryX=0.5;entryY=0;entryDx=0;entryDy=0;" edge="1" parent="1" source="_Xsb24-6hAEMeWFNvqG2-33" target="_Xsb24-6hAEMeWFNvqG2-35">
          <mxGeometry relative="1" as="geometry" />
        </mxCell>
        <mxCell id="_Xsb24-6hAEMeWFNvqG2-33" value="APO prediction" style="rounded=0;whiteSpace=wrap;html=1;" vertex="1" parent="1">
          <mxGeometry x="560" y="320" width="120" height="40" as="geometry" />
        </mxCell>
        <mxCell id="_Xsb24-6hAEMeWFNvqG2-41" style="edgeStyle=orthogonalEdgeStyle;rounded=0;orthogonalLoop=1;jettySize=auto;html=1;exitX=0.5;exitY=1;exitDx=0;exitDy=0;entryX=0.5;entryY=0;entryDx=0;entryDy=0;" edge="1" parent="1" source="_Xsb24-6hAEMeWFNvqG2-35" target="_Xsb24-6hAEMeWFNvqG2-36">
          <mxGeometry relative="1" as="geometry" />
        </mxCell>
        <mxCell id="_Xsb24-6hAEMeWFNvqG2-35" value="BBAND prediction" style="rounded=0;whiteSpace=wrap;html=1;" vertex="1" parent="1">
          <mxGeometry x="560" y="400" width="120" height="40" as="geometry" />
        </mxCell>
        <mxCell id="_Xsb24-6hAEMeWFNvqG2-42" style="edgeStyle=orthogonalEdgeStyle;rounded=0;orthogonalLoop=1;jettySize=auto;html=1;exitX=0.5;exitY=1;exitDx=0;exitDy=0;entryX=0.5;entryY=0;entryDx=0;entryDy=0;" edge="1" parent="1" source="_Xsb24-6hAEMeWFNvqG2-36" target="_Xsb24-6hAEMeWFNvqG2-37">
          <mxGeometry relative="1" as="geometry" />
        </mxCell>
        <mxCell id="_Xsb24-6hAEMeWFNvqG2-36" value="EMA prediction" style="rounded=0;whiteSpace=wrap;html=1;" vertex="1" parent="1">
          <mxGeometry x="560" y="480" width="120" height="40" as="geometry" />
        </mxCell>
        <mxCell id="_Xsb24-6hAEMeWFNvqG2-43" style="edgeStyle=orthogonalEdgeStyle;rounded=0;orthogonalLoop=1;jettySize=auto;html=1;exitX=0.5;exitY=1;exitDx=0;exitDy=0;" edge="1" parent="1" source="_Xsb24-6hAEMeWFNvqG2-37" target="_Xsb24-6hAEMeWFNvqG2-38">
          <mxGeometry relative="1" as="geometry" />
        </mxCell>
        <mxCell id="_Xsb24-6hAEMeWFNvqG2-37" value="RSI prediction" style="rounded=0;whiteSpace=wrap;html=1;" vertex="1" parent="1">
          <mxGeometry x="560" y="560" width="120" height="40" as="geometry" />
        </mxCell>
        <mxCell id="_Xsb24-6hAEMeWFNvqG2-44" style="edgeStyle=orthogonalEdgeStyle;rounded=0;orthogonalLoop=1;jettySize=auto;html=1;exitX=0.5;exitY=1;exitDx=0;exitDy=0;entryX=0.5;entryY=0;entryDx=0;entryDy=0;" edge="1" parent="1" source="_Xsb24-6hAEMeWFNvqG2-38" target="_Xsb24-6hAEMeWFNvqG2-39">
          <mxGeometry relative="1" as="geometry" />
        </mxCell>
        <mxCell id="_Xsb24-6hAEMeWFNvqG2-38" value="SMA prediction" style="rounded=0;whiteSpace=wrap;html=1;" vertex="1" parent="1">
          <mxGeometry x="560" y="640" width="120" height="40" as="geometry" />
        </mxCell>
        <mxCell id="_Xsb24-6hAEMeWFNvqG2-47" style="edgeStyle=orthogonalEdgeStyle;rounded=0;orthogonalLoop=1;jettySize=auto;html=1;entryX=0.5;entryY=1;entryDx=0;entryDy=0;" edge="1" parent="1" source="_Xsb24-6hAEMeWFNvqG2-39" target="_Xsb24-6hAEMeWFNvqG2-45">
          <mxGeometry relative="1" as="geometry">
            <Array as="points">
              <mxPoint x="620" y="780" />
              <mxPoint x="780" y="780" />
            </Array>
          </mxGeometry>
        </mxCell>
        <mxCell id="_Xsb24-6hAEMeWFNvqG2-39" value="STD prediction" style="rounded=0;whiteSpace=wrap;html=1;" vertex="1" parent="1">
          <mxGeometry x="560" y="720" width="120" height="40" as="geometry" />
        </mxCell>
        <mxCell id="_Xsb24-6hAEMeWFNvqG2-46" style="edgeStyle=orthogonalEdgeStyle;rounded=0;orthogonalLoop=1;jettySize=auto;html=1;entryX=0.75;entryY=1;entryDx=0;entryDy=0;" edge="1" parent="1" source="_Xsb24-6hAEMeWFNvqG2-45" target="_Xsb24-6hAEMeWFNvqG2-30">
          <mxGeometry relative="1" as="geometry" />
        </mxCell>
        <mxCell id="_Xsb24-6hAEMeWFNvqG2-45" value="Save all predictions" style="rounded=0;whiteSpace=wrap;html=1;" vertex="1" parent="1">
          <mxGeometry x="720" y="320" width="120" height="40" as="geometry" />
        </mxCell>
      </root>
    </mxGraphModel>
  </diagram>
</mxfile>
